<svg version="1.1" id="Layer_1" xmlns="http://www.w3.org/2000/svg" xmlns:xlink="http://www.w3.org/1999/xlink" x="0px" y="0px"
	 width="100%" viewBox="0 0 420 293" enable-background="new 0 0 420 293" xml:space="preserve">
<path fill="#877CE4" opacity="1.000000" stroke="none" 
	d="
M211.780823,156.757568 
	C200.599182,171.252640 182.605713,176.550232 165.512115,170.597549 
	C149.591568,165.053391 138.246826,149.032242 138.410522,132.324493 
	C138.633499,109.566444 156.757355,91.728790 180.159775,91.359268 
	C188.938782,91.220650 197.721802,91.336815 207.197327,91.336815 
	C207.197327,81.996414 207.157608,73.227539 207.208313,64.459175 
	C207.260849,55.378754 209.767593,46.961994 215.167206,39.686337 
	C225.251648,26.098146 239.068008,20.691517 255.520493,23.682331 
	C272.758606,26.815973 283.598694,37.710201 287.786530,54.594574 
	C293.687347,78.385178 275.663300,102.573936 251.229767,103.993088 
	C242.600647,104.494293 233.934708,104.632515 225.291840,104.506653 
	C221.236771,104.447601 219.836212,105.504791 219.864243,109.772102 
	C219.930786,119.903618 220.168228,130.139114 218.840302,140.133774 
	C218.089600,145.783966 214.378937,151.040894 211.780823,156.757568 
M222.021606,91.695290 
	C231.835358,91.538338 241.683517,91.842300 251.454544,91.112953 
	C265.025269,90.099983 275.631470,78.579590 276.078674,65.317604 
	C276.572327,50.678574 266.980133,38.198586 253.528656,35.978786 
	C239.084167,33.595116 224.115005,41.424229 221.597610,55.056759 
	C219.458893,66.638718 220.671524,78.840179 220.439102,90.768272 
	C220.434982,90.979698 220.905273,91.200371 222.021606,91.695290 
M152.696121,123.464806 
	C152.417068,124.590843 152.074982,125.705444 151.868423,126.844620 
	C148.902618,143.199738 159.957748,158.723770 175.549210,160.121170 
	C193.396667,161.720749 206.927704,149.799744 207.174866,132.210510 
	C207.249695,126.885246 207.193985,121.558128 207.196243,116.231865 
	C207.197891,112.328499 207.196564,108.425140 207.196564,104.131790 
	C197.669159,104.131790 189.037476,104.009491 180.410568,104.160301 
	C167.292053,104.389648 157.929108,110.360596 152.696121,123.464806 
z"/>
<path fill="#877CE4" opacity="1.000000" stroke="none" 
	d="
M237.661819,161.281998 
	C230.587509,150.433319 230.262253,139.757187 237.263840,129.204041 
	C244.085831,118.921616 254.139343,115.181725 265.890045,117.277168 
	C277.815796,119.403816 285.186646,127.174530 288.215027,138.870743 
	C291.303009,150.797318 284.551025,164.658981 273.150116,170.161057 
	C260.680695,176.178833 246.915833,172.828995 237.661819,161.281998 
M252.485886,158.199005 
	C259.724609,161.712601 266.205078,161.014618 271.346558,156.167587 
	C276.012665,151.768677 277.514008,145.050156 275.137390,139.203491 
	C272.685089,133.170685 266.597778,129.045990 260.336395,129.174530 
	C254.002701,129.304550 247.973618,133.711517 245.913925,139.716644 
	C243.629913,146.375717 245.661499,152.595886 252.485886,158.199005 
z"/>
<path fill="#867CE4" opacity="1.000000" stroke="none" 
	d="
M193.352966,60.184845 
	C187.121185,75.852821 171.879532,82.824265 156.644455,77.274071 
	C142.517975,72.127739 135.144974,56.384045 140.052475,41.844902 
	C144.854340,27.618704 160.626144,19.634439 175.026871,24.139580 
	C190.255386,28.903687 198.027756,43.911514 193.352966,60.184845 
M169.637085,66.259453 
	C179.226761,63.359955 183.973389,55.948605 181.890472,47.127129 
	C180.194946,39.946293 171.949158,34.304699 164.916168,35.513660 
	C156.269775,36.999966 150.296585,44.269680 151.145264,52.273670 
	C152.110153,61.373665 159.232529,67.076424 169.637085,66.259453 
z"/>
<path fill="#887DE4" opacity="1.000000" stroke="none" 
	d="
M333.739136,238.033081 
	C333.752838,242.351974 333.626526,246.187180 333.819641,250.006210 
	C334.017456,253.918198 336.205627,256.219238 340.214172,256.109619 
	C344.241272,255.999451 346.128540,253.703598 346.073578,249.640457 
	C345.990234,243.482956 346.177399,237.319382 345.982422,231.166855 
	C345.884796,228.086884 346.984253,226.886063 350.011261,227.185745 
	C351.494843,227.332642 353.011322,227.302414 354.501434,227.194016 
	C357.075500,227.006805 358.053833,228.078064 357.999542,230.678864 
	C357.874481,236.668365 358.091278,242.666077 357.917908,248.653183 
	C357.792786,252.975098 359.179688,255.860794 363.852020,256.126709 
	C368.042938,256.365204 370.198486,253.776596 370.245209,248.516891 
	C370.304077,241.889954 370.259399,235.262085 370.259399,228.253784 
	C374.114319,228.253784 377.507355,228.253784 382.265625,228.253784 
	C381.637115,237.474976 382.115448,246.894119 380.101318,255.746140 
	C377.712860,266.243195 363.686798,271.544220 353.558350,264.084656 
	C347.588654,265.206848 342.691162,266.849121 337.783569,266.879822 
	C330.541138,266.925171 323.470825,260.128387 323.079010,253.006363 
	C322.633270,244.903656 322.976013,236.757553 322.976013,228.249817 
	C326.495819,228.249817 329.724365,228.249817 333.739349,228.249817 
	C333.739349,231.347931 333.739349,234.445114 333.739136,238.033081 
z"/>
<path fill="#857AE3" opacity="1.000000" stroke="none" 
	d="
M40.673656,257.080139 
	C35.603359,244.869553 40.239269,232.913727 51.614616,228.927658 
	C63.566284,224.739685 75.517593,231.867523 78.729507,245.178528 
	C75.022690,246.660202 71.217438,248.169998 67.421059,249.701782 
	C63.602558,251.242523 59.792892,252.805191 56.114258,254.951065 
	C60.334736,256.930176 64.055252,255.626450 67.646980,252.677780 
	C70.046242,255.477554 72.172676,257.958954 74.252243,260.385681 
	C66.288223,270.825714 49.043503,269.130951 40.673656,257.080139 
M61.042778,241.742493 
	C61.101681,240.906693 61.453312,239.458878 61.175903,239.326202 
	C56.460194,237.070633 51.550060,240.076416 50.712898,245.849701 
	C54.004993,244.532257 57.177097,243.262817 61.042778,241.742493 
z"/>
<path fill="#857BE4" opacity="1.000000" stroke="none" 
	d="
M160.215286,259.740875 
	C159.188141,261.486328 158.225189,263.404572 156.670715,264.342804 
	C146.832047,270.280884 132.818054,266.825714 127.283127,257.288452 
	C121.996132,248.178360 125.770950,235.547989 135.393204,230.152542 
	C146.360931,224.002655 161.456436,230.383011 164.566833,242.648407 
	C164.810577,243.609558 163.613647,245.636536 162.599533,246.097610 
	C157.625092,248.359360 152.478149,250.239700 147.409119,252.296570 
	C145.647827,253.011276 143.935272,253.846069 142.200455,254.626007 
	C142.367493,255.231613 142.534546,255.837219 142.701584,256.442841 
	C146.612396,255.567596 150.523193,254.692368 155.096603,253.668854 
	C156.379318,255.182098 158.192657,257.321350 160.215286,259.740875 
M142.895340,238.949188 
	C139.650742,239.859909 137.381393,241.611313 137.018616,246.057785 
	C141.572937,244.132828 145.545563,242.453720 149.518188,240.774628 
	C149.468094,240.388168 149.417999,240.001709 149.367905,239.615250 
	C147.479446,239.366577 145.590988,239.117920 142.895340,238.949188 
z"/>
<path fill="#867BE4" opacity="1.000000" stroke="none" 
	d="
M278.357178,239.680710 
	C284.929688,224.871185 304.316010,224.396072 312.273346,235.434677 
	C317.824341,243.135208 317.648956,253.086029 311.666382,260.362122 
	C306.092773,267.140808 295.741486,269.183990 287.602600,265.111969 
	C279.309082,260.962524 275.128174,251.681747 277.389313,242.395737 
	C277.585175,241.591370 277.914764,240.819580 278.357178,239.680710 
M300.441650,255.359009 
	C305.120911,251.992050 306.515381,247.734863 304.349762,243.428009 
	C302.348083,239.447174 297.527771,237.656235 293.226013,239.295135 
	C289.326538,240.780762 287.136658,245.092606 288.026520,249.532959 
	C289.032379,254.552246 292.922119,256.613983 300.441650,255.359009 
z"/>
<path fill="#867BE4" opacity="1.000000" stroke="none" 
	d="
M105.738464,242.643188 
	C106.779549,240.141602 107.682816,237.996811 108.573486,235.846832 
	C112.490417,226.391693 112.489098,226.391144 123.687935,227.905457 
	C118.219261,241.178436 112.801895,254.326889 107.309929,267.656403 
	C103.533318,267.656403 99.740463,267.656403 95.636047,267.656403 
	C90.244308,254.598801 84.816116,241.452957 79.019585,227.415039 
	C82.653206,227.415039 85.774834,227.058273 88.744438,227.575073 
	C90.100456,227.811066 91.630089,229.557648 92.268379,230.983002 
	C95.317314,237.791611 98.087547,244.725006 101.379791,252.629425 
	C103.047302,248.818985 104.321068,245.908279 105.738464,242.643188 
z"/>
<path fill="#867BE4" opacity="1.000000" stroke="none" 
	d="
M239.467468,266.875122 
	C238.814758,259.444061 238.633286,252.180618 238.317520,244.923035 
	C238.211792,242.493073 238.504349,240.386642 236.117661,237.980957 
	C234.378250,236.227692 234.242554,229.909256 235.907959,228.397186 
	C238.979355,225.608566 237.954620,222.839127 238.347641,219.962769 
	C238.793182,216.701981 238.610306,213.179352 239.829773,210.238800 
	C242.026749,204.941116 246.839951,203.386780 254.545929,204.695251 
	C254.545929,207.874405 254.545929,211.113419 254.545929,214.658585 
	C253.108185,214.954987 251.712845,215.242645 250.399323,215.513443 
	C248.509567,224.589584 249.181168,226.715729 254.524689,227.912445 
	C254.524689,231.221375 254.524689,234.618988 254.524689,238.291519 
	C253.147461,238.577621 251.743149,238.869339 249.767517,239.279755 
	C249.767517,248.352921 249.767517,257.416260 249.767517,267.045044 
	C246.083435,267.045044 242.984848,267.045044 239.467468,266.875122 
z"/>
<path fill="#8479E3" opacity="1.000000" stroke="none" 
	d="
M259.766998,233.000000 
	C259.766815,223.357300 259.766815,214.214600 259.766815,204.647522 
	C263.349426,204.647522 266.581238,204.647522 270.263367,204.647522 
	C270.263367,225.140366 270.263367,245.822021 270.263367,266.872375 
	C266.972961,266.872375 263.754883,266.872375 259.767181,266.872375 
	C259.767181,255.676620 259.767181,244.588303 259.766998,233.000000 
z"/>
<path fill="#877CE4" opacity="1.000000" stroke="none" 
	d="
M178.762863,267.834717 
	C175.834824,267.838257 173.366943,267.838257 170.691162,267.838257 
	C170.691162,254.353622 170.691162,241.305817 170.691162,228.408691 
	C178.384003,226.116913 190.522202,227.807800 195.891586,232.088959 
	C192.423416,234.592621 191.248825,239.644958 185.389999,239.039307 
	C184.411606,238.938171 182.224518,241.734406 182.142441,243.274246 
	C181.779480,250.083038 181.990555,256.921967 181.973022,263.749939 
	C181.968002,265.701752 182.433212,268.018127 178.762863,267.834717 
z"/>
<path fill="#887DE4" opacity="1.000000" stroke="none" 
	d="
M217.981262,240.614639 
	C212.228271,240.614227 206.970398,240.614227 201.436584,240.614227 
	C201.436584,237.341858 201.436584,234.601730 201.436584,231.482086 
	C210.798111,231.482086 220.113022,231.482086 229.738739,231.482086 
	C229.738739,234.368881 229.738739,237.106903 229.738739,240.615051 
	C225.956100,240.615051 222.216248,240.615051 217.981262,240.614639 
z"/>
</svg>