<svg version="1.1" id="Layer_1" xmlns="http://www.w3.org/2000/svg" xmlns:xlink="http://www.w3.org/1999/xlink" x="0px" y="0px"
	 width="100%" viewBox="0 0 636 197" enable-background="new 0 0 636 197" xml:space="preserve">
<!-- Background -->
<path fill="#877CE4" opacity="1.000000" stroke="none" 
	d="
M39.927177,166.116608 
	C25.007740,155.615189 18.801903,138.333862 23.879255,122.062599 
	C29.276182,104.767204 43.691784,94.131660 62.048813,93.983330 
	C70.518295,93.914886 78.988785,93.971657 88.009666,93.971657 
	C88.160393,91.813492 88.348953,90.070374 88.392761,88.323631 
	C88.601387,80.004997 88.428116,71.660881 89.021194,63.370930 
	C90.520447,42.414551 109.111427,26.193426 130.016586,27.253262 
	C150.829666,28.308430 167.809036,46.325687 167.639206,67.175568 
	C167.469147,88.051979 150.073334,105.621628 129.074127,105.974709 
	C119.948662,106.128151 110.818481,106.000473 100.929466,106.000473 
	C100.929466,115.442764 101.017570,124.373856 100.906250,133.302460 
	C100.778717,143.532257 97.360703,152.530777 90.332336,160.062195 
	C77.147087,174.191147 58.135044,176.560516 39.927177,166.116608 
M34.324036,131.781708 
	C34.496834,133.592789 34.592495,135.415131 34.854752,137.213165 
	C36.783474,150.436584 47.630642,160.032913 60.853382,160.252426 
	C74.680824,160.481979 86.355499,151.551514 87.996597,138.156830 
	C89.162315,128.642166 88.756203,118.918793 88.687172,109.291183 
	C88.679306,108.194611 86.355011,106.234100 85.037163,106.174690 
	C78.064201,105.860329 71.069550,106.011688 64.082489,106.028458 
	C47.385628,106.068527 37.229103,114.636978 34.324036,131.781708 
M118.490173,93.965309 
	C121.990044,93.956200 125.494682,94.062126 128.988937,93.917450 
	C141.969162,93.380028 153.279831,83.368622 154.958023,71.026421 
	C156.769363,57.704842 149.416870,45.500233 136.886398,41.028839 
	C124.774895,36.706951 111.158447,41.746975 104.664391,53.338520 
	C97.485176,66.153015 102.432297,80.027534 100.828934,93.047974 
	C101.920784,93.553345 102.211868,93.803093 102.506439,93.807274 
	C107.502304,93.878014 112.498596,93.918259 118.490173,93.965309 
z"/>
<path fill="#8479E3" opacity="1.000000" stroke="none" 
	d="
M570.538147,90.535065 
	C574.676697,90.205437 578.482544,90.205437 583.123657,90.205437 
	C583.123657,96.847183 583.123230,103.422813 583.123840,109.998451 
	C583.124084,112.162170 583.041138,114.330025 583.145630,116.488762 
	C583.383057,121.394897 586.391113,124.664391 590.717041,124.847176 
	C595.124695,125.033401 598.751587,121.638954 598.907104,116.566086 
	C599.136658,109.083176 598.978943,101.588600 599.005676,94.099060 
	C599.009766,92.957466 599.118774,91.816246 599.196716,90.344528 
	C603.288879,90.344528 607.208191,90.344528 611.587952,90.344528 
	C611.711731,91.411209 611.976135,92.661598 611.982544,93.913300 
	C612.021545,101.569344 612.020020,109.225739 611.997009,116.881912 
	C611.972229,125.109978 608.213013,131.248093 601.166443,135.260056 
	C594.051270,139.311066 586.737732,139.158112 579.907043,134.726318 
	C577.198425,132.968994 575.559998,133.232239 572.946533,134.827286 
	C559.100159,143.277969 541.557251,133.820953 541.068848,117.659882 
	C540.798035,108.699608 541.020264,99.724442 541.020264,90.378220 
	C545.352112,90.378220 549.394958,90.378220 554.124695,90.378220 
	C554.124695,98.855629 554.157776,107.280708 554.109863,115.705315 
	C554.087891,119.572983 555.557434,122.502151 559.136841,124.129829 
	C564.532776,126.583534 569.819275,122.588440 569.967651,115.814209 
	C570.149719,107.499947 570.135010,99.181389 570.538147,90.535065 
z"/>
<path fill="#877CE4" opacity="1.000000" stroke="none" 
	d="
M134.063416,118.842911 
	C148.148453,115.934822 160.936172,123.047562 165.975769,136.278061 
	C170.605804,148.433304 165.178131,162.612473 153.358521,169.239136 
	C141.466721,175.906250 127.238922,172.893539 118.485947,161.854950 
	C110.479713,151.758087 111.031136,135.961334 120.530220,126.651390 
	C124.048157,123.203499 129.231186,121.454506 134.063416,118.842911 
M147.642242,158.520416 
	C149.126266,157.190521 150.767609,155.997314 152.064407,154.504745 
	C155.750565,150.262115 156.298126,143.002731 153.469101,138.087387 
	C150.280624,132.547501 143.702652,129.352081 137.880936,130.515015 
	C128.557297,132.377472 123.377388,140.491257 125.814079,149.416473 
	C128.293427,158.497864 137.137787,162.468018 147.642242,158.520416 
z"/>
<path fill="#867CE4" opacity="1.000000" stroke="none" 
	d="
M23.928707,45.107132 
	C30.682001,27.948709 52.108948,20.799154 67.427994,34.149597 
	C78.088112,43.439827 79.886536,58.172829 72.021812,69.828979 
	C64.228241,81.379677 49.834942,85.139267 37.185452,78.928383 
	C25.015755,72.953079 19.455381,59.045216 23.928707,45.107132 
M64.496971,56.055744 
	C64.294044,54.092438 64.378967,52.045734 63.838448,50.180241 
	C61.477837,42.032990 52.192768,37.501976 44.211105,40.454220 
	C36.431980,43.331543 32.397083,52.436153 35.498348,60.114262 
	C37.906742,66.076958 44.491718,70.333015 50.443760,69.773911 
	C57.676102,69.094536 62.466179,64.613495 64.496971,56.055744 
z"/>
<path fill="#857AE3" opacity="1.000000" stroke="none" 
	d="
M332.570770,118.535774 
	C328.954956,120.059212 325.686707,121.416367 322.418488,122.773521 
	C322.608856,123.459846 322.799255,124.146164 322.989655,124.832489 
	C327.907898,123.831833 332.826141,122.831177 338.594879,121.657486 
	C340.547394,123.901680 343.235870,126.991783 345.902771,130.057098 
	C337.900604,138.352615 325.272125,140.456848 315.370056,135.372192 
	C305.499695,130.303818 300.503418,120.445198 302.596497,110.167503 
	C304.851379,99.095322 313.462189,91.076393 323.984039,90.135025 
	C333.302460,89.301331 346.003693,94.241859 351.033752,111.115829 
	C345.061737,113.507118 338.990051,115.938309 332.570770,118.535774 
M318.052826,107.532219 
	C317.467712,108.857742 316.882629,110.183273 315.768127,112.708138 
	C322.078918,110.087570 326.974945,108.054489 332.351105,105.822029 
	C326.084839,102.107765 323.621674,102.408081 318.052826,107.532219 
z"/>
<path fill="#857AE3" opacity="1.000000" stroke="none" 
	d="
M229.314362,91.410721 
	C238.718582,94.887947 243.564972,101.744087 246.344971,111.113312 
	C236.780334,115.006577 227.493652,118.786697 218.206955,122.566818 
	C223.504089,125.122894 228.168976,124.290497 232.803619,120.433731 
	C235.641769,123.665802 238.322388,126.718468 240.956543,129.718231 
	C235.279587,138.488510 217.619843,141.695694 206.363785,132.541138 
	C197.650543,125.454628 195.048279,114.127792 200.031799,103.770493 
	C204.862549,93.730690 215.778839,88.355263 226.510117,90.730553 
	C227.321854,90.910233 228.135864,91.079727 229.314362,91.410721 
M219.716217,109.151382 
	C222.159225,108.099953 224.602219,107.048523 227.526825,105.789825 
	C219.890472,101.203354 212.907501,104.328003 212.515854,112.061729 
	C214.789490,111.148949 216.903702,110.300171 219.716217,109.151382 
z"/>
<path fill="#867BE4" opacity="1.000000" stroke="none" 
	d="
M496.789581,134.348587 
	C486.831207,127.162041 483.305145,116.912201 486.872894,106.236786 
	C490.153595,96.420158 499.607452,89.860817 510.189667,90.059021 
	C520.359802,90.249504 529.555725,97.162689 532.361328,107.082954 
	C535.151428,116.948296 532.790161,125.720451 524.938843,132.257126 
	C516.428528,139.342514 506.895264,140.023209 496.789581,134.348587 
M518.587036,119.767952 
	C520.770996,115.611908 521.336792,111.004295 517.903442,107.779228 
	C515.427551,105.453545 511.366364,103.674568 508.020905,103.688728 
	C503.257355,103.708893 499.865417,107.086067 499.003418,112.127632 
	C498.164215,117.035858 500.567078,121.673111 504.793091,123.728912 
	C509.439972,125.989456 513.345154,125.011703 518.587036,119.767952 
z"/>
<path fill="#857BE3" opacity="1.000000" stroke="none" 
	d="
M281.052216,103.016037 
	C282.908600,98.529541 284.627899,94.401093 286.320221,90.337479 
	C290.945068,90.337479 295.352478,90.337479 300.556213,90.337479 
	C297.907288,96.813736 295.494904,102.765366 293.040497,108.699615 
	C289.484497,117.297333 285.801056,125.844193 282.385651,134.497070 
	C281.401581,136.990143 280.262024,138.107178 277.393463,138.136978 
	C266.738647,138.247650 266.755829,138.361618 262.627594,128.392151 
	C258.050903,117.339722 253.432541,106.304550 248.856049,95.252045 
	C248.232880,93.747070 247.747116,92.185204 247.213745,90.694420 
	C247.739716,90.403412 248.001389,90.137581 248.274979,90.124664 
	C260.752930,89.535660 260.753143,89.538216 265.637054,101.198212 
	C268.201172,107.319878 270.764923,113.441681 273.718018,120.492599 
	C276.332001,114.275154 278.623566,108.824623 281.052216,103.016037 
z"/>
<path fill="#887DE4" opacity="1.000000" stroke="none" 
	d="
M453.456482,103.700394 
	C453.132904,115.122742 453.132904,126.228119 453.132904,137.669739 
	C448.258270,137.669739 444.176666,137.669739 439.216156,137.669739 
	C439.216156,133.661911 439.216187,129.587845 439.216187,125.513771 
	C439.216187,119.854012 439.260712,114.193733 439.194550,108.534744 
	C439.167511,106.221100 439.982513,103.817947 436.379364,102.637596 
	C434.037781,101.870522 435.285492,91.605576 437.455933,89.915085 
	C438.303772,89.254753 439.036560,87.974350 439.132416,86.914047 
	C439.371246,84.272041 439.214355,81.594269 439.216309,78.930862 
	C439.226013,65.646431 444.957123,60.680462 458.636841,62.440575 
	C458.636841,66.303932 458.636841,70.220970 458.636841,74.509605 
	C457.044617,74.775528 455.316650,75.064102 453.201111,75.417419 
	C453.201111,80.054779 453.201111,84.752754 453.201111,89.676224 
	C454.979858,89.880745 456.596130,90.066582 458.593262,90.296219 
	C458.593262,94.322006 458.593262,98.374870 458.593262,102.764000 
	C456.977722,102.971901 455.378876,103.177658 453.456482,103.700394 
z"/>
<path fill="#8378E3" opacity="1.000000" stroke="none" 
	d="
M464.907776,118.999527 
	C464.907745,99.901512 464.907745,81.303436 464.907745,62.354538 
	C469.337097,62.354538 473.377472,62.354538 477.709045,62.354538 
	C477.709045,87.513466 477.709045,112.519135 477.709045,137.800217 
	C473.528259,137.800217 469.611023,137.800217 464.907837,137.800217 
	C464.907837,131.659409 464.907837,125.579437 464.907776,118.999527 
z"/>
<path fill="#867BE4" opacity="1.000000" stroke="none" 
	d="
M357.030945,133.808731 
	C357.030548,119.076653 357.030548,104.822311 357.030548,90.619194 
	C374.535675,89.641960 382.290588,88.982643 387.462952,95.709816 
	C383.245605,98.289352 382.262024,105.124817 374.783295,103.492119 
	C372.088409,102.903793 370.902161,105.775436 370.937592,108.713242 
	C371.051819,118.186386 370.980164,127.661758 370.980164,138.005432 
	C366.869629,138.005432 362.952423,138.209778 359.090973,137.836853 
	C358.297546,137.760223 357.712433,135.526123 357.030945,133.808731 
z"/>
<path fill="#897FE4" opacity="1.000000" stroke="none" 
	d="
M409.005035,105.705803 
	C404.022369,105.705521 399.538483,105.705521 394.626587,105.705521 
	C394.626587,101.912445 394.626587,98.381416 394.626587,94.214912 
	C400.238617,94.214912 405.842896,94.214912 411.447144,94.214912 
	C417.078644,94.214912 422.710144,94.214912 428.710510,94.214912 
	C428.710510,98.064018 428.710510,101.463440 428.710510,105.706085 
	C422.343597,105.706085 415.923676,105.706085 409.005035,105.705803 
z"/>
</svg>